<?xml version="1.0" encoding="utf-8"?>
<!-- Generator: Adobe Illustrator 23.0.3, SVG Export Plug-In . SVG Version: 6.00 Build 0)  -->
<svg version="1.1" id="Layer_1" xmlns="http://www.w3.org/2000/svg" xmlns:xlink="http://www.w3.org/1999/xlink" x="0px" y="0px"
	 viewBox="0 0 8 8" style="enable-background:new 0 0 8 8;" xml:space="preserve">
<path d="M3.5,0L3,1.2c-0.1,0-0.2,0.1-0.3,0.1L1.5,0.8L0.8,1.5l0.5,1.2c0,0.1-0.1,0.2-0.1,0.3L0,3.5v1L1.2,5c0,0.1,0.1,0.2,0.1,0.3
	L0.8,6.5l0.7,0.7l1.2-0.5c0.1,0,0.2,0.1,0.3,0.1L3.5,8h1L5,6.8c0.1,0,0.2-0.1,0.3-0.1l1.2,0.5l0.7-0.7L6.7,5.3
	c0-0.1,0.1-0.2,0.1-0.3L8,4.5v-1L6.8,3c0-0.1-0.1-0.2-0.1-0.3l0.5-1.2L6.5,0.8L5.3,1.3C5.2,1.3,5.1,1.2,5,1.2L4.5,0
	C4.5,0,3.5,0,3.5,0z M4,2.5c0.8,0,1.5,0.7,1.5,1.5S4.8,5.5,4,5.5S2.5,4.8,2.5,4S3.2,2.5,4,2.5z"/>
</svg>
