<?xml version="1.0" encoding="utf-8"?>
<!-- Generator: Adobe Illustrator 23.0.3, SVG Export Plug-In . SVG Version: 6.00 Build 0)  -->
<svg version="1.1" id="Layer_1" xmlns="http://www.w3.org/2000/svg" xmlns:xlink="http://www.w3.org/1999/xlink" x="0px" y="0px"
	 viewBox="0 0 8 8" style="enable-background:new 0 0 8 8;" xml:space="preserve">
<path d="M5,0C4.4,0,4,0.4,4,1s0.4,1,1,1s1-0.5,1-1S5.6,0,5,0z M3.5,2.5C2.7,2.5,2,3.2,2,4h1c0-0.3,0.2-0.5,0.5-0.5S4,3.7,4,4
	S3,5.6,3,6.5S3.7,8,4.5,8S6,7.3,6,6.5H5C5,6.8,4.8,7,4.5,7S4,6.8,4,6.5C4,6.1,5,4.7,5,4C5,3.2,4.3,2.5,3.5,2.5z"/>
</svg>
